<?xml version="1.0" standalone="no"?>
<!DOCTYPE svg PUBLIC "-//W3C//DTD SVG 20010904//EN"
 "http://www.w3.org/TR/2001/REC-SVG-20010904/DTD/svg10.dtd">
<svg version="1.0" xmlns="http://www.w3.org/2000/svg"
 width="700.000000pt" height="700.000000pt" viewBox="0 0 700.000000 700.000000"
 preserveAspectRatio="xMidYMid meet">
<metadata>
Created by potrace 1.14, written by Peter Selinger 2001-2017
</metadata>
<g transform="translate(0.000000,700.000000) scale(0.100000,-0.100000)"
fill="#000000" stroke="none">
<path d="M1403 5970 l-563 -438 263 -196 c144 -108 285 -213 313 -234 28 -20
66 -49 85 -64 19 -14 116 -88 217 -163 163 -121 182 -138 176 -158 -4 -12 -35
-132 -69 -267 -34 -135 -115 -450 -179 -700 -64 -250 -154 -606 -201 -790 -88
-344 -309 -1208 -395 -1545 -27 -104 -83 -323 -124 -486 -42 -163 -76 -302
-76 -309 0 -7 547 1082 1216 2420 l1216 2434 -22 18 c-27 22 -445 319 -468
333 -9 6 -19 13 -22 16 -3 3 -43 32 -90 64 -47 32 -123 86 -170 120 -142 102
-493 351 -520 367 -25 16 -30 12 -587 -422z"/>
<path d="M5495 6366 c-63 -34 -231 -122 -400 -211 -55 -29 -143 -75 -195 -102
-52 -28 -149 -78 -215 -113 -66 -34 -160 -84 -210 -110 -127 -67 -282 -148
-410 -215 -60 -32 -151 -80 -202 -107 l-92 -49 -72 -142 c-39 -78 -97 -191
-129 -252 -31 -60 -83 -162 -114 -225 -32 -63 -61 -122 -66 -130 -5 -8 -48
-91 -96 -185 -47 -93 -128 -251 -179 -350 -51 -99 -148 -288 -215 -420 -181
-355 -340 -666 -450 -880 -54 -104 -153 -298 -220 -430 -141 -277 -313 -612
-445 -870 -51 -99 -156 -306 -235 -460 -78 -154 -169 -331 -202 -393 -32 -61
-55 -112 -51 -111 4 0 171 184 371 407 199 224 375 421 390 437 15 17 61 68
102 115 41 47 92 103 112 125 20 22 45 50 55 62 10 12 51 57 90 100 38 43 152
170 253 283 100 113 187 210 194 215 6 6 26 28 45 50 29 34 130 148 196 221
11 12 31 35 45 50 45 51 257 287 285 318 6 6 66 74 135 151 107 120 157 176
205 229 6 6 44 49 85 96 41 47 80 89 86 95 6 5 107 118 224 250 118 132 219
245 224 251 6 6 40 44 76 85 36 40 110 123 164 184 192 212 243 270 292 327
27 31 56 59 64 62 12 4 759 166 835 180 11 2 94 20 185 40 91 19 305 65 475
101 171 37 315 68 320 69 6 1 52 11 103 21 50 11 92 23 92 27 0 4 -3 8 -7 8
-5 0 -21 13 -38 28 -16 15 -104 92 -195 172 -187 163 -402 352 -410 360 -3 3
-36 32 -75 65 -38 33 -75 64 -81 70 -115 108 -610 530 -622 532 -9 0 -44 -13
-77 -31z"/>
<path d="M444 5159 c-170 -133 -340 -264 -377 -293 l-68 -51 6 -55 c5 -51 11
-98 20 -160 2 -14 13 -101 25 -195 11 -93 23 -186 26 -205 3 -19 12 -89 20
-155 8 -66 16 -133 18 -150 7 -44 25 -183 31 -240 4 -27 8 -61 10 -75 5 -29
84 -656 91 -715 2 -22 6 -49 9 -60 2 -11 7 -47 10 -80 3 -33 8 -71 10 -85 2
-14 7 -43 9 -65 14 -113 27 -213 31 -240 2 -16 9 -70 15 -120 18 -153 24 -199
35 -275 2 -14 7 -45 10 -70 8 -70 76 -601 80 -635 3 -16 9 -68 15 -115 6 -47
13 -98 15 -115 3 -16 12 -86 21 -153 9 -68 17 -131 19 -140 2 -10 4 -24 5 -32
1 -8 14 39 30 105 15 66 46 198 69 293 22 96 43 183 45 196 2 12 9 39 15 61
12 44 98 404 105 439 6 30 188 782 331 1371 31 127 58 237 60 245 2 8 24 101
50 205 52 212 54 220 61 255 3 14 7 33 10 42 3 9 6 25 8 35 2 10 9 38 16 63 7
25 14 53 16 62 2 10 6 27 9 38 3 11 7 29 9 39 3 10 23 93 45 183 22 90 42 175
45 189 3 13 17 73 32 132 l27 109 -24 21 c-13 12 -58 51 -99 87 -41 36 -77 67
-80 70 -3 3 -39 34 -80 70 -41 36 -88 77 -105 91 -16 15 -88 77 -160 139 -71
62 -147 128 -167 146 -20 19 -39 34 -41 34 -2 0 -143 -109 -313 -241z"/>
</g>
</svg>
